<svg width="1200" height="760" viewBox="0 0 1200 760" fill="none" xmlns="http://www.w3.org/2000/svg">
  <defs>
    <linearGradient id="bg2" x1="0" y1="0" x2="1200" y2="760" gradientUnits="userSpaceOnUse">
      <stop stop-color="#0B1120"/>
      <stop offset="1" stop-color="#1E293B"/>
    </linearGradient>
    <linearGradient id="paper" x1="0" y1="0" x2="1" y2="1">
      <stop stop-color="#E2E8F0"/>
      <stop offset="1" stop-color="#CBD5E1"/>
    </linearGradient>
  </defs>
  <rect width="1200" height="760" rx="40" fill="url(#bg2)"/>
  <circle cx="200" cy="640" r="150" fill="#22D3EE" fill-opacity="0.12"/>
  <circle cx="1010" cy="130" r="140" fill="#A78BFA" fill-opacity="0.12"/>

  <rect x="90" y="110" width="1020" height="540" rx="30" fill="#0F172A" stroke="#94A3B8" stroke-opacity="0.22"/>

  <rect x="180" y="170" width="420" height="420" rx="40" fill="#020617" stroke="#22D3EE" stroke-opacity="0.4"/>
  <rect x="220" y="235" width="340" height="250" rx="24" fill="#111827"/>
  <rect x="300" y="520" width="180" height="18" rx="9" fill="#334155"/>

  <rect x="660" y="160" width="330" height="460" rx="22" fill="url(#paper)"/>
  <path d="M990 160V620L960 595L930 620L900 595L870 620L840 595L810 620L780 595L750 620L720 595L690 620L660 595V160H990Z" fill="url(#paper)"/>
  <rect x="710" y="220" width="220" height="24" rx="12" fill="#0F172A" fill-opacity="0.8"/>
  <rect x="710" y="265" width="190" height="14" rx="7" fill="#64748B"/>
  <rect x="710" y="290" width="230" height="14" rx="7" fill="#64748B"/>
  <rect x="710" y="315" width="170" height="14" rx="7" fill="#64748B"/>
  <rect x="710" y="365" width="230" height="14" rx="7" fill="#64748B"/>
  <rect x="710" y="390" width="160" height="14" rx="7" fill="#64748B"/>
  <rect x="710" y="415" width="220" height="14" rx="7" fill="#64748B"/>

  <circle cx="500" cy="230" r="56" fill="#22D3EE"/>
  <path d="M474 230L494 250L528 214" stroke="#082F49" stroke-width="16" stroke-linecap="round" stroke-linejoin="round"/>

  <circle cx="420" cy="420" r="78" fill="#22C55E" fill-opacity="0.22"/>
  <path d="M386 420L412 446L456 400" stroke="#BBF7D0" stroke-width="16" stroke-linecap="round" stroke-linejoin="round"/>

  <text x="170" y="700" fill="#BAE6FD" font-size="30" font-family="Verdana, sans-serif" letter-spacing="3">ZGŁOŚ PARAGON W 3 KROKACH</text>
</svg>
